<svg width="36" height="36" xmlns="http://www.w3.org/2000/svg"><path d="M15.493 35.625H0v-4.682c.371-.696 1.206-1.344 1.902-1.847a7.93 7.93 0 0 1 2.32-1.148 15.34 15.34 0 0 1 2.48-.557 18.587 18.587 0 0 1 2.483-.162c.494 0 .873.015 1.136.046a142.16 142.16 0 0 1 1.473 1.02c.131.094.37.271.719.534.348.263.595.46.742.592.147.131.36.328.638.591.278.263.483.491.614.684.132.194.294.43.488.708.193.278.328.545.405.8.078.255.151.533.22.835.07.301.105.615.105.94 0 .587-.077 1.136-.232 1.646zM0 27.889V17.711c1.593 1.824 3.682 2.85 6.31 2.85.496 0 1.058-.097 1.645-.174-.324.943-.487 1.608-.487 1.995 0 1.036.487 2.187 1.461 3.455-3.618.109-6.594.846-8.929 2.052zm11.933-10.18c-.673.935-1.759 1.402-3.259 1.402a4.505 4.505 0 0 1-2.25-.603 5.97 5.97 0 0 1-1.809-1.565 11.267 11.267 0 0 1-1.298-2.169 11.869 11.869 0 0 1-.824-2.412 10.641 10.641 0 0 1-.266-2.296c0-1.484.398-2.76 1.194-3.827.796-1.067 1.913-1.6 3.351-1.6 1.021 0 1.941.317 2.76.95a6.788 6.788 0 0 1 1.949 2.413c.479.974.842 1.979 1.09 3.015.247 1.036.37 2.025.37 2.969 0 1.546-.335 2.787-1.008 3.722zm23.692-5.834v23.75H18.091a7.61 7.61 0 0 0 .904-3.641c0-1.02-.17-1.968-.51-2.842-.34-.873-.77-1.592-1.287-2.157a24.04 24.04 0 0 0-1.67-1.646 24.393 24.393 0 0 0-1.67-1.38 6.253 6.253 0 0 1-1.287-1.264c-.34-.456-.51-.916-.51-1.38 0-.557.177-1.083.533-1.577.356-.495.789-.97 1.299-1.427.51-.456 1.016-.955 1.519-1.496.503-.541.932-1.26 1.287-2.157.356-.897.534-1.91.534-3.038a9.77 9.77 0 0 0-.615-3.375c-.41-1.12-.993-2.037-1.751-2.748a1.823 1.823 0 0 0-.325-.255 7.03 7.03 0 0 0-.29-.174.848.848 0 0 1-.232-.22 2.311 2.311 0 0 1-.243-.395h3.131l3.131-1.484H9.904c-2.134 0-4.024.297-5.671.893C2.586 4.457 1.175 5.489 0 6.958V0h35.625V8.906h-5.938V2.97H26.72v5.937H20.78v2.969h5.938v5.938h2.968v-5.938h5.938z" fill="#FFF" fill-rule="evenodd"/></svg>